<svg height="512pt" viewBox="-6 0 512 512" width="512pt" xmlns="http://www.w3.org/2000/svg"><g fill="#78b9eb"><path d="m93.257812 104.6875v62.546875l36.117188-62.546875zm0 0"/><path d="m93.257812 471.085938h153.277344l-153.277344-88.460938zm0 0"/><path d="m459.65625 104.6875h-114.890625l114.890625 66.300781zm0 0"/></g><path d="m459.65625 471.085938v-205.621094l-118.644531 205.621094zm0 0" fill="#5aaae7"/><path d="m161.738281 422.144531 84.796875 48.941407 70.835938 40.914062 23.640625-40.914062 78.863281-136.703126c-66.554688 69.648438-162.921875 102.410157-258.136719 87.761719zm0 0" fill="#ffcd00"/><path d="m254.0625 52.34375h-.007812l57.296874 33.089844v-.011719zm0 0" fill="#ffda44"/><path d="m285.179688 0c-24.078126.0273438-43.589844 19.542969-43.617188 43.621094v1.507812l8.722656 5.035156 3.777344 2.179688h4.945312v-8.722656c0-14.457032 11.71875-26.171875 26.171876-26.171875 14.453124 0 26.171874 11.714843 26.171874 26.171875v87.238281c0 14.453125-11.71875 26.167969-26.171874 26.167969-14.453126 0-26.171876-11.714844-26.171876-26.167969v-52.34375h-17.445312v52.339844c0 24.089843 19.527344 43.621093 43.617188 43.621093 24.09375 0 43.621093-19.53125 43.621093-43.621093v-87.234375c-.03125-24.078125-19.542969-43.5937502-43.621093-43.621094zm0 0" fill="#a7a9ac"/><path d="m495.074219 191.488281-35.417969-20.5-114.890625-66.300781-15.964844-9.195312v35.367187c0 24.089844-19.53125 43.617187-43.621093 43.617187-24.089844 0-43.617188-19.527343-43.617188-43.617187v-52.34375h17.445312v52.339844c0 14.457031 11.71875 26.171875 26.171876 26.171875 14.453124 0 26.171874-11.71875 26.171874-26.171875v-45.421875l-57.300781-33.089844-3.765625-2.183594-8.726562-5.03125-58.359375-33.703125-53.824219 93.261719-36.117188 62.546875-93.257812 161.566406 93.257812 53.824219 68.480469 39.519531c95.214844 14.648438 191.582031-18.113281 258.136719-87.761719l39.78125-68.917968 29.835938-51.730469 11.078124-19.105469zm0 0" fill="#ffda44"/><path d="m250.285156 50.160156 3.769532 2.183594h.007812zm0 0" fill="#a7a9ac"/><path d="m302.628906 139.582031h-8.722656c-14.457031 0-26.171875-11.71875-26.171875-26.171875v-17.449218h17.445313v17.449218c0 4.820313 3.90625 8.722656 8.726562 8.722656h8.722656zm0 0" fill="#a7a9ac"/><path d="m186.648438 199.800781 8.722656-15.109375 135.988281 78.515625-8.726563 15.109375zm0 0" fill="#57a4ff"/><path d="m160.472656 247.464844 8.726563-15.109375 135.984375 78.515625-8.722656 15.109375zm0 0" fill="#57a4ff"/><path d="m134.300781 295.132812 8.722657-15.109374 135.988281 78.515624-8.722657 15.109376zm0 0" fill="#57a4ff"/></svg>