<svg id="Capa_1" enable-background="new 0 0 512 512" height="512" viewBox="0 0 512 512" width="512" xmlns="http://www.w3.org/2000/svg"><path d="m512 448.52h-512v-416.666c0-5.523 4.477-10 10-10h492c5.523 0 10 4.477 10 10z" fill="#e4f6ff"/><path d="m497.431 21.854v401.691c0 5.747-4.659 10.407-10.407 10.407h-487.024v14.569h512v-416.366c0-5.69-4.612-10.302-10.302-10.302h-4.267z" fill="#d3effb"/><path d="m218.532 73.782v80.127c0 1.483-.319 2.936-.927 4.265-.464 1.04-1.113 1.998-1.906 2.833l-.175.185-53.291 53.291-.185.175c-.845.803-1.803 1.442-2.833 1.906-1.329.608-2.782.927-4.265.927h-80.128c-5.687 0-10.302-4.605-10.302-10.302v-133.407c0-5.687 4.615-10.302 10.302-10.302h133.408c5.697 0 10.302 4.615 10.302 10.302z" fill="#f4dd45"/><path d="m173.781 202.925-11.548 11.559-.185.175c-.845.803-1.803 1.442-2.833 1.906-1.329.608-2.782.927-4.265.927h-80.128c-5.687 0-10.302-4.605-10.302-10.302v-4.265z" fill="#ecc32e"/><path d="m218.532 73.782v80.127c0 1.483-.319 2.936-.927 4.265-.464 1.04-1.113 1.998-1.906 2.833l-.175.185-5.11 5.11-6.449 6.439v-109.261h4.265c5.697 0 10.302 4.615 10.302 10.302z" fill="#ecc32e"/><path d="m217.605 158.174c-.464 1.04-1.113 1.998-1.906 2.833l-.175.185-5.11 5.11-6.449 6.439v.01l-30.174 30.174h-.01l-11.548 11.559-.185.175c-.845.803-1.803 1.442-2.833 1.906v-48.089c0-5.69 4.612-10.302 10.302-10.302z" fill="#f6e781"/><path d="m447.48 73.782v80.127c0 1.483-.319 2.936-.927 4.265-.505 1.113-1.205 2.143-2.091 3.018l-53.466 53.467c-.835.803-1.793 1.432-2.833 1.906-1.329.608-2.781.927-4.265.927h-80.128c-5.697 0-10.302-4.605-10.302-10.302v-133.408c0-5.687 4.605-10.302 10.302-10.302h133.409c5.686 0 10.301 4.615 10.301 10.302z" fill="#e27a66"/><path d="m402.729 202.925-11.734 11.734c-.835.803-1.793 1.432-2.833 1.906-1.329.608-2.781.927-4.265.927h-80.127c-5.697 0-10.302-4.605-10.302-10.302v-4.265z" fill="#dd544f"/><path d="m447.48 73.782v80.127c0 1.483-.319 2.936-.927 4.265-.505 1.113-1.205 2.143-2.091 3.018l-11.548 11.548v-109.26h4.265c5.686 0 10.301 4.615 10.301 10.302z" fill="#dd544f"/><path d="m446.553 158.174c-.505 1.113-1.205 2.143-2.091 3.018l-53.466 53.467c-.835.803-1.793 1.432-2.833 1.906v-48.089c0-5.69 4.612-10.302 10.302-10.302z" fill="#e48e81"/><path d="m218.532 265.261v80.128c0 1.483-.319 2.936-.927 4.265-.464 1.03-1.113 1.988-1.906 2.833l-53.466 53.467c-.886.886-1.906 1.587-3.018 2.091-1.329.608-2.782.927-4.265.927h-80.128c-5.687 0-10.302-4.605-10.302-10.302v-133.409c0-5.687 4.615-10.302 10.302-10.302h133.408c5.697.001 10.302 4.616 10.302 10.302z" fill="#aad540"/><path d="m173.781 394.405-11.548 11.548c-.886.886-1.906 1.587-3.018 2.091-1.329.608-2.782.927-4.265.927h-80.128c-5.687 0-10.302-4.605-10.302-10.302v-4.265h109.261z" fill="#9dc63d"/><path d="m218.532 265.261v84.392l-14.567 14.567v-109.26h4.265c5.697 0 10.302 4.615 10.302 10.301z" fill="#9dc63d"/><path d="m218.532 349.654-56.299 56.3c-.886.886-1.906 1.587-3.018 2.091v-48.089c0-5.69 4.612-10.302 10.302-10.302z" fill="#c8ea73"/><path d="m447.48 265.261v80.128c0 1.483-.319 2.936-.927 4.265-.505 1.113-1.205 2.133-2.091 3.018l-53.281 53.281-3.018 2.091c-1.329.608-2.781.927-4.265.927h-80.128c-5.697 0-10.302-4.605-10.302-10.302v-133.408c0-5.687 4.605-10.302 10.302-10.302h133.409c5.686.001 10.301 4.616 10.301 10.302z" fill="#a2f4c1"/><path d="m402.729 394.405-11.548 11.548-3.018 2.091c-1.329.608-2.781.927-4.265.927h-80.128c-5.697 0-10.302-4.605-10.302-10.302v-4.265h109.261z" fill="#86f1a7"/><path d="m447.48 265.261v80.128c0 1.483-.319 2.936-.927 4.265-.505 1.113-1.205 2.133-2.091 3.018l-11.548 11.549v-109.261h4.265c5.686 0 10.301 4.615 10.301 10.301z" fill="#86f1a7"/><path d="m446.553 349.654c-.505 1.113-1.205 2.133-2.091 3.018l-53.281 53.281-3.018 2.091v-48.089c0-5.69 4.612-10.302 10.302-10.302h48.088z" fill="#b9f6d3"/><path d="m502 490.146h-492c-5.523 0-10-4.477-10-10v-31.626h512v31.626c0 5.523-4.477 10-10 10z" fill="#c6865c"/><path d="m497.431 448.52v20.813 20.813h4.267c5.69 0 10.302-4.612 10.302-10.302v-31.324z" fill="#b16e3d"/><g fill="#665e66"><path d="m189.398 102.425h-93.659c-4.268 0-7.726-3.459-7.726-7.726s3.459-7.726 7.726-7.726h93.659c4.268 0 7.726 3.459 7.726 7.726s-3.458 7.726-7.726 7.726z"/><path d="m189.398 133.645h-93.659c-4.268 0-7.726-3.459-7.726-7.726 0-4.268 3.459-7.726 7.726-7.726h93.659c4.268 0 7.726 3.459 7.726 7.726.001 4.267-3.458 7.726-7.726 7.726z"/><path d="m132.163 165.905h-36.424c-4.268 0-7.726-3.459-7.726-7.726 0-4.268 3.459-7.726 7.726-7.726h36.424c4.268 0 7.726 3.459 7.726 7.726 0 4.268-3.458 7.726-7.726 7.726z"/><path d="m418.341 102.425h-93.658c-4.268 0-7.726-3.459-7.726-7.726s3.459-7.726 7.726-7.726h93.658c4.268 0 7.726 3.459 7.726 7.726s-3.458 7.726-7.726 7.726z"/><path d="m418.341 133.645h-93.658c-4.268 0-7.726-3.459-7.726-7.726 0-4.268 3.459-7.726 7.726-7.726h93.658c4.268 0 7.726 3.459 7.726 7.726s-3.458 7.726-7.726 7.726z"/><path d="m361.106 165.905h-36.423c-4.268 0-7.726-3.459-7.726-7.726 0-4.268 3.459-7.726 7.726-7.726h36.423c4.268 0 7.726 3.459 7.726 7.726 0 4.268-3.459 7.726-7.726 7.726z"/><path d="m189.398 293.905h-93.659c-4.268 0-7.726-3.459-7.726-7.726s3.459-7.726 7.726-7.726h93.659c4.268 0 7.726 3.459 7.726 7.726s-3.458 7.726-7.726 7.726z"/><path d="m189.398 325.125h-93.659c-4.268 0-7.726-3.459-7.726-7.726s3.459-7.726 7.726-7.726h93.659c4.268 0 7.726 3.459 7.726 7.726s-3.458 7.726-7.726 7.726z"/><path d="m132.163 357.385h-36.424c-4.268 0-7.726-3.459-7.726-7.726s3.459-7.726 7.726-7.726h36.424c4.268 0 7.726 3.459 7.726 7.726s-3.458 7.726-7.726 7.726z"/></g><path d="m418.341 278.453h-93.658c-4.268 0-7.726 3.459-7.726 7.726v31.219c0 4.268 3.459 7.726 7.726 7.726h93.658c4.268 0 7.726-3.459 7.726-7.726v-31.219c0-4.268-3.458-7.726-7.726-7.726z" fill="#f4dd45"/><path d="m361.106 357.385h-36.423c-4.268 0-7.726-3.459-7.726-7.726s3.459-7.726 7.726-7.726h36.423c4.268 0 7.726 3.459 7.726 7.726s-3.459 7.726-7.726 7.726z" fill="#665e66"/><path d="m361.106 385.483h-36.423c-4.268 0-7.726-3.459-7.726-7.726s3.459-7.726 7.726-7.726h36.423c4.268 0 7.726 3.459 7.726 7.726s-3.459 7.726-7.726 7.726z" fill="#665e66"/></svg>